<svg width="119" height="105" viewBox="0 0 119 105" fill="none" xmlns="http://www.w3.org/2000/svg">
<path fill-rule="evenodd" clip-rule="evenodd" d="M59.5 0C59.4139 0 59.3279 0.000182807 59.2419 0.000548065L59.2461 1.00054C59.3307 1.00018 59.4153 1 59.5 1C59.5847 1 59.6693 1.00018 59.7539 1.00054L59.7581 0.000548124C59.6721 0.000182837 59.5861 0 59.5 0ZM56.1624 0.092045C55.9908 0.101537 55.8193 0.111756 55.6481 0.1227L55.7119 1.12066C55.8803 1.1099 56.0489 1.09985 56.2176 1.09052L56.1624 0.092045ZM63.3519 0.1227C63.1807 0.111756 63.0092 0.101537 62.8376 0.0920456L62.7824 1.09052C62.9512 1.09985 63.1197 1.1099 63.2881 1.12066L63.3519 0.1227ZM52.5795 0.398205C52.4091 0.417944 52.2389 0.438403 52.069 0.459579L52.1926 1.45191C52.3597 1.43109 52.5271 1.41097 52.6946 1.39156L52.5795 0.398205ZM66.931 0.459579C66.7611 0.438403 66.5909 0.417944 66.4205 0.398206L66.3054 1.39156C66.473 1.41097 66.6403 1.43109 66.8074 1.45191L66.931 0.459579ZM70.4824 1.01158C70.3143 0.980211 70.146 0.94955 69.9774 0.919599L69.8025 1.90418C69.9682 1.93363 70.1337 1.96377 70.299 1.99461L70.4824 1.01158ZM49.0226 0.919599C48.854 0.94955 48.6857 0.980211 48.5176 1.01158L48.701 1.99461C48.8663 1.96377 49.0318 1.93363 49.1975 1.90418L49.0226 0.919599ZM73.9931 1.7777C73.8275 1.73624 73.6615 1.69547 73.4953 1.6554L73.2609 2.62754C73.4243 2.66694 73.5875 2.70702 73.7503 2.74778L73.9931 1.7777ZM45.5047 1.6554C45.3385 1.69547 45.1725 1.73624 45.0068 1.77771L45.2496 2.74779C45.4125 2.70702 45.5756 2.66694 45.739 2.62755L45.5047 1.6554ZM77.4518 2.75614C77.2886 2.70457 77.1252 2.65368 76.9614 2.60348L76.6683 3.55957C76.8293 3.60892 76.99 3.65895 77.1504 3.70965L77.4518 2.75614ZM42.0386 2.60348C41.8748 2.65368 41.7113 2.70457 41.5482 2.75615L41.8496 3.70965C42.01 3.65895 42.1707 3.60892 42.3317 3.55957L42.0386 2.60348ZM80.8457 3.94369C80.6858 3.88221 80.5255 3.82139 80.3649 3.76125L80.0142 4.69773C80.1721 4.75685 80.3296 4.81664 80.4869 4.87709L80.8457 3.94369ZM38.635 3.76126C38.4745 3.8214 38.3142 3.88221 38.1543 3.9437L38.5131 4.87709C38.6703 4.81665 38.8279 4.75686 38.9858 4.69774L38.635 3.76126ZM84.1602 5.3351C84.0045 5.26408 83.8484 5.19372 83.692 5.12401L83.285 6.03744C83.4388 6.10597 83.5922 6.17514 83.7453 6.24496L84.1602 5.3351ZM35.308 5.12402C35.1516 5.19373 34.9955 5.26409 34.8397 5.33511L35.2546 6.24497C35.4077 6.17515 35.5612 6.10598 35.715 6.03745L35.308 5.12402ZM87.3837 6.92482C87.2326 6.84456 87.0812 6.76492 86.9294 6.68593L86.4678 7.57299C86.617 7.65066 86.7659 7.72895 86.9144 7.80787L87.3837 6.92482ZM32.0706 6.68594C31.9188 6.76494 31.7673 6.84457 31.6163 6.92484L32.0856 7.80788C32.2341 7.72897 32.383 7.65067 32.5322 7.57301L32.0706 6.68594ZM90.505 8.70681C90.359 8.61753 90.2127 8.52886 90.0659 8.4408L89.5514 9.29832C89.6957 9.3849 89.8397 9.47208 89.9832 9.55987L90.505 8.70681ZM28.9341 8.44081C28.7873 8.52887 28.6409 8.61754 28.495 8.70683L29.0168 9.55988C29.1603 9.4721 29.3042 9.38492 29.4485 9.29834L28.9341 8.44081ZM93.5136 10.6744C93.3732 10.5764 93.2323 10.479 93.091 10.3822L92.5258 11.2071C92.6647 11.3023 92.8032 11.3981 92.9413 11.4945L93.5136 10.6744ZM25.9089 10.3822C25.7676 10.479 25.6268 10.5764 25.4863 10.6744L26.0587 11.4945C26.1967 11.3981 26.3352 11.3023 26.4742 11.2071L25.9089 10.3822ZM96.3979 12.8194C96.2637 12.7132 96.129 12.6075 95.9938 12.5024L95.38 13.2918C95.5129 13.3952 95.6453 13.4991 95.7773 13.6035L96.3979 12.8194ZM23.0061 12.5024C22.871 12.6075 22.7363 12.7132 22.6021 12.8194L23.2227 13.6035C23.3547 13.4991 23.4871 13.3952 23.62 13.2918L23.0061 12.5024ZM99.1479 15.1338C99.0203 15.0197 98.8922 14.9061 98.7636 14.7931L98.1035 15.5442C98.2299 15.6553 98.3558 15.767 98.4813 15.8792L99.1479 15.1338ZM20.2363 14.7931C20.1078 14.9061 19.9797 15.0197 19.8521 15.1338L20.5187 15.8792C20.6441 15.767 20.7701 15.6553 20.8965 15.5442L20.2363 14.7931ZM101.754 17.6091C101.633 17.4875 101.512 17.3665 101.391 17.246L100.687 17.9561C100.806 18.0746 100.925 18.1936 101.044 18.3132L101.754 17.6091ZM17.6091 17.246C17.4875 17.3665 17.3665 17.4875 17.246 17.6091L17.9561 18.3132C18.0746 18.1936 18.1936 18.0746 18.3132 17.9561L17.6091 17.246ZM104.207 20.2363C104.094 20.1078 103.98 19.9797 103.866 19.8521L103.121 20.5187C103.233 20.6441 103.345 20.7701 103.456 20.8965L104.207 20.2363ZM15.1338 19.8521C15.0197 19.9797 14.9061 20.1078 14.7931 20.2364L15.5442 20.8965C15.6553 20.7701 15.767 20.6442 15.8792 20.5187L15.1338 19.8521ZM106.498 23.0061C106.392 22.871 106.287 22.7363 106.181 22.6021L105.396 23.2227C105.501 23.3547 105.605 23.4871 105.708 23.62L106.498 23.0061ZM12.8194 22.6021C12.7132 22.7363 12.6075 22.871 12.5024 23.0062L13.2918 23.62C13.3952 23.4871 13.4991 23.3547 13.6035 23.2227L12.8194 22.6021ZM108.618 25.9089C108.521 25.7676 108.424 25.6268 108.326 25.4863L107.506 26.0587C107.602 26.1967 107.698 26.3352 107.793 26.4742L108.618 25.9089ZM10.6744 25.4864C10.5764 25.6268 10.479 25.7677 10.3822 25.909L11.2071 26.4742C11.3023 26.3353 11.3981 26.1968 11.4945 26.0587L10.6744 25.4864ZM110.559 28.9341C110.471 28.7873 110.382 28.6409 110.293 28.495L109.44 29.0168C109.528 29.1603 109.615 29.3042 109.702 29.4485L110.559 28.9341ZM8.70681 28.495C8.61753 28.641 8.52886 28.7873 8.4408 28.9341L9.29832 29.4486C9.3849 29.3043 9.47208 29.1603 9.55987 29.0168L8.70681 28.495ZM112.314 32.0706C112.235 31.9188 112.155 31.7673 112.075 31.6163L111.192 32.0856C111.271 32.2341 111.349 32.383 111.427 32.5322L112.314 32.0706ZM6.92482 31.6163C6.84456 31.7674 6.76492 31.9188 6.68593 32.0706L7.57299 32.5322C7.65066 32.383 7.72895 32.2341 7.80787 32.0856L6.92482 31.6163ZM113.876 35.308C113.806 35.1516 113.736 34.9955 113.665 34.8397L112.755 35.2546C112.825 35.4077 112.894 35.5612 112.963 35.715L113.876 35.308ZM5.3351 34.8398C5.26408 34.9955 5.19372 35.1516 5.12401 35.308L6.03744 35.715C6.10597 35.5612 6.17514 35.4078 6.24496 35.2547L5.3351 34.8398ZM115.239 38.635C115.179 38.4745 115.118 38.3142 115.056 38.1543L114.123 38.5131C114.183 38.6703 114.243 38.8279 114.302 38.9858L115.239 38.635ZM3.94369 38.1543C3.88221 38.3142 3.82139 38.4745 3.76125 38.6351L4.69773 38.9858C4.75685 38.8279 4.81664 38.6704 4.87709 38.5131L3.94369 38.1543ZM116.397 42.0386C116.346 41.8748 116.295 41.7113 116.244 41.5482L115.29 41.8496C115.341 42.01 115.391 42.1707 115.44 42.3317L116.397 42.0386ZM2.75614 41.5482C2.70457 41.7114 2.65368 41.8748 2.60348 42.0386L3.55957 42.3317C3.60892 42.1707 3.65895 42.01 3.70965 41.8496L2.75614 41.5482ZM117.345 45.5047C117.305 45.3385 117.264 45.1725 117.222 45.0068L116.252 45.2496C116.293 45.4125 116.333 45.5756 116.372 45.739L117.345 45.5047ZM1.7777 45.0069C1.73624 45.1725 1.69547 45.3385 1.6554 45.5047L2.62754 45.7391C2.66694 45.5757 2.70702 45.4125 2.74778 45.2497L1.7777 45.0069ZM118.08 49.0226C118.05 48.854 118.02 48.6857 117.988 48.5176L117.005 48.701C117.036 48.8663 117.066 49.0318 117.096 49.1975L118.08 49.0226ZM1.01158 48.5176C0.980211 48.6857 0.94955 48.854 0.919599 49.0226L1.90418 49.1975C1.93363 49.0318 1.96377 48.8663 1.99461 48.701L1.01158 48.5176ZM118.602 52.5795C118.594 52.5148 118.587 52.4502 118.579 52.3856C118.566 52.28 118.554 52.1744 118.54 52.069L117.548 52.1926C117.569 52.3597 117.589 52.5271 117.608 52.6946L118.602 52.5795ZM0.459579 52.069C0.438403 52.2389 0.417944 52.4091 0.398206 52.5795L1.39156 52.6946C1.41097 52.527 1.43109 52.3597 1.45191 52.1926L0.459579 52.069ZM0.1227 55.6481C0.111756 55.8193 0.101537 55.9908 0.0920456 56.1624L1.09052 56.2176C1.09985 56.0488 1.1099 55.8803 1.12066 55.7119L0.1227 55.6481ZM118.908 56.1624C118.898 55.9908 118.888 55.8193 118.877 55.6481L117.879 55.7119C117.89 55.8803 117.9 56.0489 117.909 56.2176L118.908 56.1624ZM0.000548124 59.2419C0.000182837 59.3279 0 59.4139 0 59.5C0 59.5861 0.000182807 59.6721 0.000548065 59.7581L1.00054 59.7539C1.00018 59.6693 1 59.5847 1 59.5C1 59.4153 1.00018 59.3307 1.00054 59.2461L0.000548124 59.2419ZM119 59.3932C119 59.3428 119 59.2923 118.999 59.2419L117.999 59.2461C118 59.3307 118 59.4153 118 59.5C118 59.5847 118 59.6693 117.999 59.7539L118.999 59.7581L119 59.68L119 59.5C119 59.4644 119 59.4288 119 59.3932ZM0.092045 62.8376C0.101537 63.0092 0.111756 63.1807 0.1227 63.3519L1.12066 63.2881C1.1099 63.1197 1.09985 62.9511 1.09052 62.7824L0.092045 62.8376ZM118.877 63.3519C118.888 63.1807 118.898 63.0092 118.908 62.8376L117.909 62.7824C117.9 62.9512 117.89 63.1197 117.879 63.2881L118.877 63.3519ZM0.398205 66.4205C0.417944 66.5909 0.438403 66.7611 0.459579 66.931L1.45191 66.8074C1.43109 66.6403 1.41097 66.4729 1.39156 66.3054L0.398205 66.4205ZM118.54 66.931C118.562 66.7611 118.582 66.5909 118.602 66.4205L117.608 66.3054C117.6 66.3822 117.591 66.4588 117.581 66.5355C117.57 66.6262 117.559 66.7168 117.548 66.8074L118.54 66.931ZM0.919599 69.9774C0.94955 70.146 0.980211 70.3143 1.01158 70.4824L1.99461 70.299C1.96377 70.1337 1.93363 69.9682 1.90418 69.8025L0.919599 69.9774ZM117.988 70.4824C118.02 70.3143 118.05 70.146 118.08 69.9774L117.096 69.8025C117.066 69.9682 117.036 70.1337 117.005 70.299L117.988 70.4824ZM117.222 73.9931C117.264 73.8275 117.305 73.6615 117.345 73.4953L116.372 73.2609C116.333 73.4243 116.293 73.5875 116.252 73.7503L117.222 73.9931ZM1.6554 73.4953C1.69547 73.6615 1.73624 73.8275 1.77771 73.9932L2.74779 73.7504C2.70702 73.5875 2.66694 73.4244 2.62755 73.261L1.6554 73.4953ZM116.244 77.4518C116.295 77.2886 116.346 77.1252 116.397 76.9614L115.44 76.6683C115.391 76.8293 115.341 76.99 115.29 77.1504L116.244 77.4518ZM2.60348 76.9614C2.65368 77.1252 2.70457 77.2887 2.75615 77.4518L3.70965 77.1504C3.65895 76.99 3.60892 76.8293 3.55957 76.6683L2.60348 76.9614ZM115.056 80.8457C115.118 80.6858 115.179 80.5255 115.239 80.3649L114.302 80.0142C114.243 80.1721 114.183 80.3296 114.123 80.4869L115.056 80.8457ZM3.76126 80.365C3.8214 80.5255 3.88221 80.6858 3.9437 80.8457L4.87709 80.4869C4.81665 80.3297 4.75686 80.1721 4.69774 80.0142L3.76126 80.365ZM113.665 84.1602C113.736 84.0045 113.806 83.8484 113.876 83.692L112.963 83.285C112.894 83.4388 112.825 83.5922 112.755 83.7453L113.665 84.1602ZM5.12402 83.692C5.19373 83.8484 5.26409 84.0045 5.33511 84.1603L6.24497 83.7454C6.17515 83.5923 6.10598 83.4388 6.03745 83.285L5.12402 83.692ZM112.075 87.3837C112.155 87.2326 112.235 87.0812 112.314 86.9294L111.427 86.4678C111.349 86.617 111.271 86.7659 111.192 86.9144L112.075 87.3837ZM6.68594 86.9294C6.76494 87.0812 6.84457 87.2327 6.92484 87.3837L7.80788 86.9144C7.72897 86.7659 7.65067 86.617 7.57301 86.4678L6.68594 86.9294ZM110.293 90.505C110.382 90.359 110.471 90.2127 110.559 90.0659L109.702 89.5514C109.615 89.6957 109.528 89.8397 109.44 89.9832L110.293 90.505ZM8.44081 90.0659C8.52887 90.2127 8.61754 90.3591 8.70683 90.505L9.55988 89.9832C9.4721 89.8397 9.38492 89.6958 9.29834 89.5515L8.44081 90.0659ZM108.326 93.5136C108.424 93.3732 108.521 93.2323 108.618 93.091L107.793 92.5258C107.698 92.6647 107.602 92.8032 107.506 92.9413L108.326 93.5136ZM10.3822 93.0911C10.479 93.2324 10.5764 93.3732 10.6744 93.5137L11.4945 92.9413C11.3981 92.8033 11.3023 92.6648 11.2071 92.5258L10.3822 93.0911ZM106.334 96.2026C106.389 96.1332 106.443 96.0636 106.498 95.9938L105.708 95.38C105.605 95.5129 105.501 95.6453 105.396 95.7773L106.181 96.3979C106.232 96.3329 106.283 96.2678 106.334 96.2026ZM12.5024 95.9939C12.6075 96.129 12.7132 96.2637 12.8194 96.3979L13.6035 95.7773C13.4991 95.6453 13.3952 95.5129 13.2918 95.38L12.5024 95.9939ZM103.866 99.1479C103.98 99.0203 104.094 98.8922 104.207 98.7636L103.456 98.1035C103.345 98.2299 103.233 98.3558 103.121 98.4813L103.866 99.1479ZM14.7931 98.7637C14.9061 98.8922 15.0197 99.0203 15.1338 99.1479L15.8792 98.4813C15.767 98.3559 15.6553 98.2299 15.5442 98.1035L14.7931 98.7637ZM101.391 101.754C101.512 101.633 101.634 101.512 101.754 101.391L101.044 100.687C100.925 100.806 100.806 100.925 100.687 101.044L101.391 101.754ZM17.246 101.391C17.3665 101.512 17.4875 101.634 17.6091 101.754L18.3132 101.044C18.1936 100.925 18.0746 100.806 17.9561 100.687L17.246 101.391ZM98.7637 104.207L98.9024 104.085C98.9429 104.049 98.9833 104.013 99.0237 103.977C99.0652 103.94 99.1066 103.903 99.1479 103.866L98.4813 103.121L98.3535 103.235C98.2704 103.309 98.187 103.382 98.1035 103.456L98.7637 104.207ZM19.8521 103.866C19.9797 103.98 20.1078 104.094 20.2364 104.207L20.8965 103.456C20.7701 103.345 20.6442 103.233 20.5187 103.121L19.8521 103.866Z" fill="#9499C3"/>
</svg>
