<svg width="1920" height="90" viewBox="0 0 1920 90" fill="none" xmlns="http://www.w3.org/2000/svg">
<g filter="url(#filter0_bd_5515_145)">
<mask id="path-1-inside-1_5515_145" fill="white">
<path fill-rule="evenodd" clip-rule="evenodd" d="M562.427 0C556.314 0 550.432 2.33246 545.98 6.52147L488.13 60.957C483.008 65.7766 480.447 68.1864 477.501 69.9069C474.888 71.4326 472.059 72.5543 469.111 73.2338C465.786 74 462.269 74 455.236 74H-7C-11.4183 74 -15 77.5817 -15 82V82C-15 86.4183 -11.4183 90 -6.99999 90H457.266H1462.73H1927C1931.42 90 1935 86.4183 1935 82V82C1935 77.5817 1931.42 74 1927 74H1464.76C1457.73 74 1454.21 74 1450.89 73.2338C1447.94 72.5543 1445.11 71.4326 1442.5 69.9069C1439.55 68.1864 1436.99 65.7766 1431.87 60.957L1374.02 6.52148C1369.57 2.33247 1363.69 0 1357.57 0H562.427Z"/>
</mask>
<path fill-rule="evenodd" clip-rule="evenodd" d="M562.427 0C556.314 0 550.432 2.33246 545.98 6.52147L488.13 60.957C483.008 65.7766 480.447 68.1864 477.501 69.9069C474.888 71.4326 472.059 72.5543 469.111 73.2338C465.786 74 462.269 74 455.236 74H-7C-11.4183 74 -15 77.5817 -15 82V82C-15 86.4183 -11.4183 90 -6.99999 90H457.266H1462.73H1927C1931.42 90 1935 86.4183 1935 82V82C1935 77.5817 1931.42 74 1927 74H1464.76C1457.73 74 1454.21 74 1450.89 73.2338C1447.94 72.5543 1445.11 71.4326 1442.5 69.9069C1439.55 68.1864 1436.99 65.7766 1431.87 60.957L1374.02 6.52148C1369.57 2.33247 1363.69 0 1357.57 0H562.427Z" fill="white" fill-opacity="0.4" shape-rendering="crispEdges"/>
<path d="M545.98 6.52147L542.554 2.8801L542.554 2.88011L545.98 6.52147ZM1374.02 6.52148L1370.59 10.1628L1370.59 10.1628L1374.02 6.52148ZM1450.89 73.2338L1449.77 78.106L1450.89 73.2338ZM1431.87 60.957L1428.44 64.5984L1431.87 60.957ZM1442.5 69.9069L1439.98 74.2248L1442.5 69.9069ZM488.13 60.957L484.704 57.3157L488.13 60.957ZM477.501 69.9069L474.98 65.5891L477.501 69.9069ZM469.111 73.2338L467.988 68.3615L469.111 73.2338ZM549.407 10.1628C552.931 6.84653 557.588 5 562.427 5V-5C555.041 -5 547.933 -2.1816 542.554 2.8801L549.407 10.1628ZM491.557 64.5984L549.407 10.1628L542.554 2.88011L484.704 57.3157L491.557 64.5984ZM-7 79H455.236V69H-7V79ZM457.266 85H-6.99999V95H457.266V85ZM1462.73 85H457.266V95H1462.73V85ZM1927 85H1462.73V95H1927V85ZM1464.76 79H1927V69H1464.76V79ZM1370.59 10.1628L1428.44 64.5984L1435.3 57.3157L1377.45 2.88012L1370.59 10.1628ZM1357.57 5C1362.41 5 1367.07 6.84655 1370.59 10.1628L1377.45 2.88016C1372.07 -2.18161 1364.96 -5 1357.57 -5V5ZM562.427 5H1357.57V-5H562.427V5ZM1464.76 69C1457.5 69 1454.65 68.9704 1452.01 68.3615L1449.77 78.106C1453.77 79.0296 1457.96 79 1464.76 79V69ZM1428.44 64.5984C1433.4 69.2622 1436.43 72.1509 1439.98 74.2248L1445.02 65.5891C1442.68 64.2219 1440.58 62.2911 1435.3 57.3157L1428.44 64.5984ZM1452.01 68.3615C1449.56 67.7952 1447.2 66.8605 1445.02 65.5891L1439.98 74.2248C1443.03 76.0047 1446.33 77.3133 1449.77 78.106L1452.01 68.3615ZM-20 82C-20 89.1797 -14.1797 95 -6.99999 95V85C-8.65685 85 -10 83.6568 -10 82H-20ZM1940 82C1940 74.8203 1934.18 69 1927 69V79C1928.66 79 1930 80.3431 1930 82H1940ZM-7 69C-14.1797 69 -20 74.8203 -20 82H-10C-10 80.3431 -8.65685 79 -7 79V69ZM1927 95C1934.18 95 1940 89.1797 1940 82H1930C1930 83.6569 1928.66 85 1927 85V95ZM484.704 57.3157C479.416 62.2911 477.321 64.2219 474.98 65.5891L480.022 74.2248C483.574 72.1509 486.6 69.2621 491.557 64.5984L484.704 57.3157ZM455.236 79C462.042 79 466.226 79.0296 470.234 78.106L467.988 68.3615C465.346 68.9704 462.497 69 455.236 69V79ZM474.98 65.5891C472.802 66.8605 470.445 67.7952 467.988 68.3615L470.234 78.106C473.673 77.3133 476.974 76.0047 480.022 74.2248L474.98 65.5891Z" fill="url(#paint0_radial_5515_145)" mask="url(#path-1-inside-1_5515_145)"/>
</g>
<defs>
<filter id="filter0_bd_5515_145" x="-65" y="-50" width="2050" height="190" filterUnits="userSpaceOnUse" color-interpolation-filters="sRGB">
<feFlood flood-opacity="0" result="BackgroundImageFix"/>
<feGaussianBlur in="BackgroundImage" stdDeviation="25"/>
<feComposite in2="SourceAlpha" operator="in" result="effect1_backgroundBlur_5515_145"/>
<feColorMatrix in="SourceAlpha" type="matrix" values="0 0 0 0 0 0 0 0 0 0 0 0 0 0 0 0 0 0 127 0" result="hardAlpha"/>
<feOffset dy="4"/>
<feGaussianBlur stdDeviation="2"/>
<feComposite in2="hardAlpha" operator="out"/>
<feColorMatrix type="matrix" values="0 0 0 0 0 0 0 0 0 0 0 0 0 0 0 0 0 0 0.25 0"/>
<feBlend mode="normal" in2="effect1_backgroundBlur_5515_145" result="effect2_dropShadow_5515_145"/>
<feBlend mode="normal" in="SourceGraphic" in2="effect2_dropShadow_5515_145" result="shape"/>
</filter>
<radialGradient id="paint0_radial_5515_145" cx="0" cy="0" r="1" gradientUnits="userSpaceOnUse" gradientTransform="translate(960 45) rotate(90) scale(45 975)">
<stop offset="0.395833" stop-color="white"/>
<stop offset="1" stop-color="white" stop-opacity="0"/>
</radialGradient>
</defs>
</svg>
