<svg width="42" height="42" viewBox="0 0 42 42" fill="none" xmlns="http://www.w3.org/2000/svg">
<path d="M27.125 24.5H25.7425L25.2525 24.0275C26.9675 22.0325 28 19.4425 28 16.625C28 10.3425 22.9075 5.25 16.625 5.25C10.3425 5.25 5.25 10.3425 5.25 16.625C5.25 22.9075 10.3425 28 16.625 28C19.4425 28 22.0325 26.9675 24.0275 25.2525L24.5 25.7425V27.125L33.25 35.8575L35.8575 33.25L27.125 24.5V24.5ZM16.625 24.5C12.2675 24.5 8.75 20.9825 8.75 16.625C8.75 12.2675 12.2675 8.75 16.625 8.75C20.9825 8.75 24.5 12.2675 24.5 16.625C24.5 20.9825 20.9825 24.5 16.625 24.5ZM17.5 12.25H15.75V15.75H12.25V17.5H15.75V21H17.5V17.5H21V15.75H17.5V12.25Z" fill="white"/>
</svg>
